<mxfile host="65bd71144e">
    <diagram id="IeqN9PdBWZHurF_H_65i" name="Page-1">
        <mxGraphModel dx="2557" dy="1812" grid="1" gridSize="10" guides="1" tooltips="1" connect="1" arrows="1" fold="1" page="1" pageScale="1" pageWidth="827" pageHeight="1169" math="0" shadow="0">
            <root>
                <mxCell id="0"/>
                <mxCell id="1" parent="0"/>
                <mxCell id="132" value="" style="rounded=0;whiteSpace=wrap;html=1;fillColor=none;strokeColor=default;perimeterSpacing=1;dashed=1;" parent="1" vertex="1">
                    <mxGeometry x="-910" y="-180" width="670" height="650" as="geometry"/>
                </mxCell>
                <mxCell id="131" value="" style="rounded=0;whiteSpace=wrap;html=1;fillColor=none;strokeColor=default;perimeterSpacing=1;dashed=1;" parent="1" vertex="1">
                    <mxGeometry x="-890" y="-125" width="630" height="575" as="geometry"/>
                </mxCell>
                <mxCell id="135" value="&lt;span style=&quot;color: rgba(0 , 0 , 0 , 0) ; font-family: monospace ; font-size: 0px&quot;&gt;%3CmxGraphModel%3E%3Croot%3E%3CmxCell%20id%3D%220%22%2F%3E%3CmxCell%20id%3D%221%22%20parent%3D%220%22%2F%3E%3CmxCell%20id%3D%222%22%20value%3D%22%22%20style%3D%22aspect%3Dfixed%3Bhtml%3D1%3Bpoints%3D%5B%5D%3Balign%3Dcenter%3Bimage%3BfontSize%3D12%3Bimage%3Dimg%2Flib%2Fazure2%2Fgeneral%2FStorage_Container.svg%3B%22%20vertex%3D%221%22%20parent%3D%221%22%3E%3CmxGeometry%20x%3D%22-622.91%22%20y%3D%22-152%22%20width%3D%2264%22%20height%3D%2252%22%20as%3D%22geometry%22%2F%3E%3C%2FmxCell%3E%3C%2Froot%3E%3C%2FmxGraphModel%3E&lt;/span&gt;" style="rounded=0;whiteSpace=wrap;html=1;fillColor=none;strokeColor=default;perimeterSpacing=1;dashed=1;" parent="1" vertex="1">
                    <mxGeometry x="-640" y="280" width="160" height="150" as="geometry"/>
                </mxCell>
                <mxCell id="137" value="&lt;span style=&quot;color: rgba(0 , 0 , 0 , 0) ; font-family: monospace ; font-size: 0px&quot;&gt;%3CmxGraphModel%3E%3Croot%3E%3CmxCell%20id%3D%220%22%2F%3E%3CmxCell%20id%3D%221%22%20parent%3D%220%22%2F%3E%3CmxCell%20id%3D%222%22%20value%3D%22%22%20style%3D%22aspect%3Dfixed%3Bhtml%3D1%3Bpoints%3D%5B%5D%3Balign%3Dcenter%3Bimage%3BfontSize%3D12%3Bimage%3Dimg%2Flib%2Fazure2%2Fgeneral%2FStorage_Container.svg%3B%22%20vertex%3D%221%22%20parent%3D%221%22%3E%3CmxGeometry%20x%3D%22-622.91%22%20y%3D%22-152%22%20width%3D%2264%22%20height%3D%2252%22%20as%3D%22geometry%22%2F%3E%3C%2FmxCell%3E%3C%2Froot%3E%3C%2FmxGraphModel%3E&lt;/span&gt;" style="rounded=0;whiteSpace=wrap;html=1;fillColor=none;strokeColor=default;perimeterSpacing=1;dashed=1;" vertex="1" parent="1">
                    <mxGeometry x="-620" y="320" width="120" height="90" as="geometry"/>
                </mxCell>
                <mxCell id="89" value="" style="image;html=1;image=img/lib/clip_art/computers/Laptop_128x128.png;rounded=0;" parent="1" vertex="1">
                    <mxGeometry x="-1200" y="139" width="70" height="70" as="geometry"/>
                </mxCell>
                <mxCell id="90" value="Cliente&lt;br&gt;" style="text;html=1;strokeColor=none;fillColor=none;align=center;verticalAlign=middle;whiteSpace=wrap;rounded=0;fontFamily=Helvetica;fontSize=12;" parent="1" vertex="1">
                    <mxGeometry x="-1195" y="203.6" width="60" height="30" as="geometry"/>
                </mxCell>
                <mxCell id="91" value="" style="aspect=fixed;html=1;points=[];align=center;image;fontSize=12;image=img/lib/mscae/Cache_Redis_Product.svg;fontFamily=Helvetica;rounded=0;" parent="1" vertex="1">
                    <mxGeometry x="-385" y="-20" width="50" height="42" as="geometry"/>
                </mxCell>
                <mxCell id="92" value="" style="dashed=0;outlineConnect=0;html=1;align=center;labelPosition=center;verticalLabelPosition=bottom;verticalAlign=top;shape=mxgraph.weblogos.mongodb;fontFamily=Helvetica;fontSize=12;rounded=0;" parent="1" vertex="1">
                    <mxGeometry x="-377" y="93" width="34" height="76.2" as="geometry"/>
                </mxCell>
                <mxCell id="93" value="MongoDB" style="text;html=1;strokeColor=none;fillColor=none;align=center;verticalAlign=middle;whiteSpace=wrap;rounded=0;fontFamily=Helvetica;fontSize=12;" parent="1" vertex="1">
                    <mxGeometry x="-390" y="169.20000000000005" width="60" height="30" as="geometry"/>
                </mxCell>
                <mxCell id="95" value="Redis" style="text;html=1;strokeColor=none;fillColor=none;align=center;verticalAlign=middle;whiteSpace=wrap;rounded=0;fontFamily=Helvetica;fontSize=12;" parent="1" vertex="1">
                    <mxGeometry x="-390" y="26.400000000000034" width="60" height="30" as="geometry"/>
                </mxCell>
                <mxCell id="97" value="Reverse-&lt;br&gt;proxy" style="text;html=1;strokeColor=none;fillColor=none;align=center;verticalAlign=middle;whiteSpace=wrap;rounded=0;fontFamily=Helvetica;fontSize=12;" parent="1" vertex="1">
                    <mxGeometry x="-810" y="203.6" width="60" height="30" as="geometry"/>
                </mxCell>
                <mxCell id="99" value="" style="shape=image;verticalLabelPosition=bottom;verticalAlign=top;imageAspect=0;aspect=fixed;image=data:image/svg+xml,PHN2ZyB4bWxucz0iaHR0cDovL3d3dy53My5vcmcvMjAwMC9zdmciIHhtbG5zOnhsaW5rPSJodHRwOi8vd3d3LnczLm9yZy8xOTk5L3hsaW5rIiB3aWR0aD0iMjU2IiBoZWlnaHQ9IjI1NS45OTg5OTI5MTk5MjE4OCIgdmlld0JveD0iMCAwIDI1NiAyNTUuOTk4OTkyOTE5OTIxODgiIHZlcnNpb249IjEuMSIgcHJlc2VydmVBc3BlY3RSYXRpbz0ieE1pZFlNaWQiPgogICAgPGc+CiAgICAgICAgPHBhdGggZD0iTTE2MC4yMjcsMTc4LjUxODYgTDE4Ny44NTcsMTc4LjUxODYgTDE0My43NSw2NC4wNDg2IEwxMTMuMjAxLDY0LjA0ODYgTDY5LjA5NCwxNzguNTE4NiBMOTYuNzI2LDE3OC41MTg2IEwxMDMuOTM0LDE1OS4xMjg2IEwxNDUuNjA5LDE1OS4xMjg2IEwxMzguMDY1LDEzNy42NzI2IEwxMTAuNjI1LDEzNy42NzI2IEwxMjguNDc1LDg4LjQxODYgTDE2MC4yMjcsMTc4LjUxODYgWiBNMjUxLjMzOSw5My43NjggQzI1MC4zNTcsOTAuMjMyIDI0Ni43MDUsODguMTU1IDI0My4xNTQsODkuMTQxIEMyMzkuNjE3LDkwLjEyMyAyMzcuNTQ0LDkzLjc4NyAyMzguNTI2LDk3LjMyNCBDMjQxLjI5OSwxMDcuMzA5IDI0Mi43MDQsMTE3LjYzIDI0Mi43MDQsMTI4IEMyNDIuNzA0LDE5MS4yNDggMTkxLjI0OCwyNDIuNzAyIDEyOCwyNDIuNzAyIEM2NC43NTIsMjQyLjcwMiAxMy4yOTcsMTkxLjI0OCAxMy4yOTcsMTI4IEMxMy4yOTcsNjQuNzUxIDY0Ljc1MiwxMy4yOTYgMTI4LDEzLjI5NiBDMTU0Ljc5MywxMy4yOTYgMTgwLjcxOCwyMi44MTQgMjAxLjE3OSwzOS43NTIgQzIwMC4zODMsNDEuNjUyIDE5OS45NDEsNDMuNzM3IDE5OS45NDEsNDUuOTI1IEMxOTkuOTQxLDU0Ljc2IDIwNy4xMDMsNjEuOTIyIDIxNS45MzgsNjEuOTIyIEMyMjQuNzczLDYxLjkyMiAyMzEuOTM1LDU0Ljc2IDIzMS45MzUsNDUuOTI1IEMyMzEuOTM1LDM3LjA5IDIyNC43NzMsMjkuOTI4IDIxNS45MzgsMjkuOTI4IEMyMTQuMjM3LDI5LjkyOCAyMTIuNiwzMC4xOTkgMjExLjA2MiwzMC42OTEgQzE4OC4wMjIsMTEuMDU2IDE1OC41MTMsMCAxMjgsMCBDNTcuNDIxLDAgMCw1Ny40MiAwLDEyOCBDMCwxOTguNTc5IDU3LjQyMSwyNTUuOTk5IDEyOCwyNTUuOTk5IEMxOTguNTc5LDI1NS45OTkgMjU2LDE5OC41NzkgMjU2LDEyOCBDMjU2LDExNi40MjggMjU0LjQzMywxMDQuOTEgMjUxLjMzOSw5My43NjggWiIgZmlsbD0iIzExMkI0OSIvPgogICAgPC9nPgo8L3N2Zz4=;rounded=0;" parent="1" vertex="1">
                    <mxGeometry x="-615.4000000000001" y="-20.000000000000014" width="59.2" height="59.2" as="geometry"/>
                </mxCell>
                <mxCell id="100" value="" style="shape=image;verticalLabelPosition=bottom;verticalAlign=top;imageAspect=0;aspect=fixed;image=data:image/svg+xml,PHN2ZyB4bWxucz0iaHR0cDovL3d3dy53My5vcmcvMjAwMC9zdmciIHhtbG5zOnhsaW5rPSJodHRwOi8vd3d3LnczLm9yZy8xOTk5L3hsaW5rIiB2aWV3Qm94PSItMC4xMTk5OTk5OTk5OTk5OTk2MSAtMC43OSA1Ni4xNzE5OTk5OTk5OTk5OSA2NS42MjEwMDAwMDAwMDAwMSIgZmlsbD0iI2ZmZiIgZmlsbC1ydWxlPSJldmVub2RkIiBzdHJva2U9IiMwMDAiIHN0cm9rZS1saW5lY2FwPSJyb3VuZCIgc3Ryb2tlLWxpbmVqb2luPSJyb3VuZCIgd2lkdGg9IjIxMTkiIGhlaWdodD0iMjUwMCI+PHVzZSB4bGluazpocmVmPSIjYSIgeD0iLjUiIHk9Ii41Ii8+PHN5bWJvbCBpZD0iYSIgb3ZlcmZsb3c9InZpc2libGUiPjxnIHN0cm9rZT0ibm9uZSIgZmlsbC1ydWxlPSJub256ZXJvIj48cGF0aCBkPSJNOC40NjcgMjUuMTUyczQuNi0zLjk5OCAxOC4yMTItMy45OThjMTIuNDg4IDAgMTUuOTk4IDIuODMgMTkuNTYyIDRsLTE4LjU5NiA5LjA3NXoiIGZpbGw9IiNjOTc4MWYiLz48cGF0aCBkPSJNNi41MjYgMzcuMTg3Yy4wODQgMS43MzUgMS44Mi45MzIgMi42MDUuNC43NDYtLjUxNS45NjQtLjA4NyAxLjAzLTEuMTAzbC4wODItMi4wMDZjLTEuMTMtLjEwMi0yLjM1NS4xNjYtMy4yOC44MzctLjQ3OC4zNDgtMS4zNyAxLjQ1LS40MzUgMS44ODIiIGZpbGw9IiNmNmQyYTIiLz48cGF0aCBkPSJNNi41MjYgMzcuMTg3Yy4yNTMtLjA5My41Mi0uMTYuNjktLjM5IiBmaWxsPSIjYzZiMTk4Ii8+PHBhdGggZD0iTTEwLjUzNSAxNi41MjRjLTYuNjUtMS44Ny0xLjcwNS0xMC4zMTQgMy42MzQtNi44NHptMjkuNTQtNy40NzRjNS4yNjMtMy42OTIgMTAuMDIgNC42MzcgMy45MDIgNi43MzN6IiBmaWxsPSIjMzdhYmM4Ii8+PHBhdGggZD0iTTQxLjIxIDU4LjUzNGMxLjMzNy44MjYgMy43OCAzLjMyNCAxLjc3NSA0LjUzNS0xLjkyNyAxLjc2Mi0zLjAwNS0xLjkzNC00LjY5Ni0yLjQ0Ni43MjgtLjk4OCAxLjY1LTEuODg4IDIuOTItMi4wOXptLTIzLjg4MyAyLjgyM2MtMS41Ny4yNDItMi40NTIgMS42NTYtMy43NiAyLjM3NC0xLjIzMy43MzQtMS43MDQtLjIzNS0xLjgxNS0uNDMyLS4xOTYtLjA4OC0uMTc3LjA4Mi0uNDc1LS4yMTgtMS4xNDMtMS44IDEuMTktMy4xMTggMi40MDYtNC4wMTIgMS42OTItLjM0MiAyLjc1MyAxLjEyMyAzLjY0NSAyLjI4OHoiIGZpbGw9IiNmNmQyYTIiLz48cGF0aCBkPSJNMTAuODEzIDE0LjJjLS44NzctLjQ2LTEuNTItMS4wOTItLjk4NC0yLjEwNi40OTctLjkzOCAxLjQyLS44MzYgMi4yOTctLjM3M3ptMzEuNzgtLjg4Yy44NzctLjQ2MyAxLjUyLTEuMDkzLjk4NC0yLjEwNi0uNDk3LS45MzgtMS40Mi0uODM2LTIuMjk3LS4zNzN6IiBmaWxsPSIjMDc3ZTkxIi8+PHBhdGggZD0iTTQ4LjYzIDM2Ljk2NmMtLjA4NCAxLjczNC0xLjgyLjkzMi0yLjYwNS40LS43NDYtLjUxNS0uOTY0LS4wODctMS4wMy0xLjEwM2wtLjA4Mi0yLjAwNmMxLjEzLS4xMDIgMi4zNTUuMTY2IDMuMjguODM3LjQ3OC4zNDggMS4zNyAxLjQ1LjQzNSAxLjg4MiIgZmlsbD0iI2Y2ZDJhMiIvPjxwYXRoIGQ9Ik00OC42MyAzNi45NjdjLS4yNTMtLjA5My0uNTItLjE2LS42OS0uMzg4IiBmaWxsPSIjYzZiMTk4Ii8+PHBhdGggZD0iTTI2LjkxMiA1LjU0YzYuNjU3IDAgMTIuODk3Ljk1IDE2LjE1IDcuMzM3IDIuOTIgNy4xNiAxLjg4MiAxNC44NzggMi4zMjcgMjIuNDQ0LjM4MyA2LjQ5NiAxLjIzIDE0LTEuNzg4IDIwLjAyMi0zLjE3NSA2LjMzNC0xMS4xMSA3LjkyNy0xNy42NDMgNy42OTMtNS4xMzQtLjE4My0xMS4zMzUtMS44NTYtMTQuMjMyLTYuNTQtMy40LTUuNDk1LTEuOC0xMy42NjYtMS41NDMtMTkuNzguMjkyLTcuMjQzLTEuOTY0LTE0LjUwNy40MTgtMjEuNTk1IDIuNDcyLTcuMzUyIDkuMTM4LTkuMDE0IDE2LjMxMi05LjU4IiBmaWxsPSIjMzdhYmM4Ii8+PHBhdGggZD0iTTI4LjA4NyAxNC40NjVjMS4xOTUgNi45MzggMTIuNTUgNS4xMDQgMTAuOTItMS44OS0xLjQ2Mi02LjI3NS0xMS4zMTctNC41MzgtMTAuOTIgMS44OW0tMTMuNTcgMS4xMjJjMS41NSA2LjA0IDExLjIzMyA0LjQ5NCAxMC44NjgtMS41NjUtLjQzNS03LjI1Ny0xMi4zNS01Ljg1Ni0xMC44NjggMS41NjVtMTUuNzc1IDYuOTY2Yy4wMDUuOTI3LjIxNyAxLjgzMy4wMzQgMi44NzQtLjIzLjQzNS0uNjgzLjQ4LTEuMDczLjY1N2ExLjU4IDEuNTggMCAwIDEtMS4yMDktLjk0MmMtLjE0LTEuMDk1LjA1Mi0yLjE1Ni4wODctMy4yNXoiLz48cGF0aCBkPSJNMTUuNTUzIDE0LjYwMmMwLS45OC43My0xLjc3IDEuNjM1LTEuNzdzMS42MzUuNzkgMS42MzUgMS43Ny0uNzMgMS43Ny0xLjYzNSAxLjc3LTEuNjM1LS43OS0xLjYzNS0xLjc3eiIgZmlsbD0iIzAwMCIvPjxwYXRoIGQ9Ik0xNy41NDYgMTVjMC0uMjUuMTcyLS40NS4zODYtLjQ1cy4zODUuMi4zODUuNDUtLjE3Mi40NS0uMzg1LjQ1LS4zODYtLjItLjM4Ni0uNDV6Ii8+PHBhdGggZD0iTTI5LjI4IDE0LjE2MmMwLS45OC43MTctMS43NyAxLjYwOC0xLjc3czEuNjA4Ljc5IDEuNjA4IDEuNzctLjcxNyAxLjc3LTEuNjA4IDEuNzctMS42MDgtLjc5LTEuNjA4LTEuNzd6IiBmaWxsPSIjMDAwIi8+PHBhdGggZD0iTTMxLjI0IDE0LjU2YzAtLjI1LjE3LS40NS4zOC0uNDVzLjM4LjIuMzguNDUtLjE3LjQ1LS4zOC40NS0uMzgtLjItLjM4LS40NXptLTUuNjIgOC4xMzJjLS43MTMgMS43MjcuMzk4IDUuMTggMi4zMzQgMi42My0uMTQtMS4wOTUuMDUyLTIuMTU2LjA4Ni0zLjI1eiIvPjxwYXRoIGQ9Ik0yNS41MDYgMTkuMzY3Yy0xLjMzLjExMy0yLjQxNyAxLjY5Mi0xLjcyNSAyLjk0Mi45MTYgMS42NTIgMi45Ni0uMTQ2IDQuMjMyLjAyMiAxLjQ2NS4wMyAyLjY2NSAxLjU0NyAzLjg0Mi4yNzQgMS4zMS0xLjQxMy0uNTYzLTIuNzk0LTIuMDI2LTMuNHoiIGZpbGw9IiNmNmQyYTIiLz48cGF0aCBkPSJNOC40NjcgMjUuMTUybC4zOTIgNi41MTdjLS4wMyAxLjk2MyAxLjg1NC43MjMgMS45NTIgMy44MXMtMS4xNCAyLjUwMi0xLjc5NCA0LjAxMy0xLjA5NiA4LjU4Ny0xLjA5NiA4LjU4Ny42NyAxLjMyMiAyLjc2IDIuNTEzIDUuNDU3IDEuODYgOC4zNjcgMS43MjggNC45OTItLjc1NSA1LjUxMy0xLjEgMS4zODMtMS40MzQgMS43MDgtMi4yNzcgMS4wMDMtNy43ODUuOTU2LTExLjc1Ny0uNzA1LTcuNjM3LS43MDUtNy42Mzd6IiBmaWxsPSIjZWY5MzI1Ii8+PHBhdGggZD0iTTI2LjkxNCA0NC40OTNjLTguNTc2Ljk1Ni0xOC41MjctMS42ODctMTguNTI3LTEuNjg3cy4xNDYtMi42OC44LTMuNjI0YzguOTIgMi43NiAxNy45MTggMS44ODUgMTcuOTE4IDEuODg1LjEzMyAxLjI1LjA0IDIuMjQ2LS4xOCAzLjQyNnptLTEuMDc3IDUuMjgzYy04LjU3Ni45NTYtMTcuOTEzLTEuNzkzLTE3LjkxMy0xLjc5M3MtLjAzLTIuNTc1LjMxLTMuNzA2YzguOTIgMi43NiAxOC40NDYgMi4wNzIgMTguNDQ2IDIuMDcyLS4wOCAxLjM2LS4yNzIgMi42OTYtLjg0NCAzLjQyNnoiIGZpbGw9IiNlNWU1ZTUiLz48cGF0aCBkPSJNNDYuMjQyIDI1LjE1MmwtLjAzIDYuNTE3Yy4wMyAxLjk2My0xLjE0LjcyMy0xLjI0IDMuODFzMS4xNTUgMi41MDIgMS44MTYgNC4wMTMgMS4xIDguNTg3IDEuMSA4LjU4Ny0uNjc4IDEuMzIyLTIuNzk2IDIuNTEzLTUuNTIzIDEuODYtOC40NzIgMS43MjgtNS4wNTUtLjc1NS01LjU4Mi0xLjEtMS40LTEuNDM0LTEuNzMtMi4yNzctMS4wMTYtNy43ODUtLjk2Ny0xMS43NTcuNzEzLTcuNjM3LjcxMy03LjYzN3oiIGZpbGw9IiNlZjkzMjUiLz48cGF0aCBkPSJNMjguNjY3IDQ0LjQ5M2M4LjY4NC45NTYgMTguNzYyLTEuNjg3IDE4Ljc2Mi0xLjY4N3MtLjE0OC0yLjY4LS44LTMuNjI0Yy05LjAzMiAyLjc2LTE4LjE0MyAxLjg4NS0xOC4xNDMgMS44ODUtLjEzNSAxLjI1LS4wNCAyLjI0Ni4xODMgMy40MjZ6bTEuMDkzIDUuMjgzYzguNjg0Ljk1NiAxOC4xMzgtMS43OTMgMTguMTM4LTEuNzkzcy4wMy0yLjU3NS0uMzE1LTMuNzA2Yy05LjAzIDIuNzYtMTguNjc4IDIuMDcyLTE4LjY3OCAyLjA3Mi4wOCAxLjM2LjI3NSAyLjY5Ni44NTUgMy40MjZ6IiBmaWxsPSIjZTVlNWU1Ii8+PHBhdGggZD0iTTQ5LjcwNSAzMy41MDRjLS4yNy41MS0uODA0Ljc1NC0xLjE5My41NDhsLS4zMTItLjE2NWMtLjM5LS4yMDYtLjQ4Ni0uNzgzLS4yMTYtMS4yOTRsNi4wNzctMTEuNDU1Yy4yNy0uNTEuODA0LS43NTQgMS4xOTMtLjU0OGwuMzEyLjE2NWMuMzkuMjA2LjQ4Ni43ODMuMjE2IDEuMjk0eiIgZmlsbD0iI2QyZTI2MSIvPjxwYXRoIGQ9Ik00Ni44MzYgMzguOTE0Yy0uMTU3LjI5Ni0uNi4zNy0uOTkuMTY0bC0uMzEyLS4xNjVjLS4zOS0uMjA2LS41NzctLjYxMy0uNDItLjkxbDIuODUtNS4zNzRjLjE1Ny0uMjk2LjYtLjM3Ljk5LS4xNjRsLjMxMi4xNjVjLjM5LjIwNi41NzcuNjEzLjQyLjkxeiIgZmlsbD0iIzAwMCIvPjxwYXRoIGQ9Ik00OS4zNyAzMi40MzVsLS4zMTItLjE2NWMtLjM5LS4yMDYtLjc4Ny0uMjE3LS44OS0uMDI1bC0uMTgyLjM0M2MuMTAyLS4xOTIuNS0uMTguODkuMDI1bC4zMTIuMTY1Yy4zOS4yMDYuNjIyLjUyOC41Mi43MmwuMTgyLS4zNDNjLjEwMi0uMTkyLS4xMy0uNTE1LS41Mi0uNzJ6IiBmaWxsPSIjOWI5YjliIi8+PHBhdGggZD0iTTQ1LjU1IDM1LjA3NmMuMi0uNTM3LjkyLS43NiAxLjYxNC0uNTAyczEuMDkzLjkuODkzIDEuNDM1LS45Mi43Ni0xLjYxNC41MDItMS4wOTMtLjktLjg5My0xLjQzNXoiIGZpbGw9IiNmNmQyYTIiLz48cGF0aCBkPSJNNS42NyAzMy42ODdjLjI0Ni41Mi43Ny44IDEuMTY3LjYwMmwuMzItLjE1Yy4zOTgtLjE4OC41Mi0uNzYyLjI3NS0xLjI4MmwtNS41NDUtMTEuNzJjLS4yNDYtLjUyLS43NjgtLjgtMS4xNjctLjYwMmwtLjMyLjE1Yy0uMzk4LjE4OC0uNTIuNzYyLS4yNzUgMS4yODJ6IiBmaWxsPSIjZDJlMjYxIi8+PHBhdGggZD0iTTguMyAzOS4yMjVjLjE0My4zMDMuNTgzLjM5Ny45NzguMjFsLjMyLS4xNWMuMzk4LS4xODguNjA0LS41ODYuNDYtLjg5bC0yLjYtNS40OTdjLS4xNDMtLjMwMy0uNTgzLS4zOTYtLjk3OC0uMjFsLS4zMi4xNWMtLjM5OC4xODgtLjYwNC41ODYtLjQ2Ljg5eiIgZmlsbD0iIzAwMCIvPjxwYXRoIGQ9Ik02LjA1NSAzMi42MzdsLjMyLS4xNWMuMzk4LS4xODguNzk2LS4xOC44OS4wMTZsLjE2Ni4zNTJjLS4wOTMtLjE5Ny0uNDktLjIwMy0uODktLjAxNmwtLjMyLjE1Yy0uMzk4LjE4OC0uNjQ2LjUtLjU1My42OTZsLS4xNjYtLjM1MmMtLjA5My0uMTk2LjE1Mi0uNTA4LjU1My0uNjk2eiIgZmlsbD0iIzliOWI5YiIvPjxwYXRoIGQ9Ik0xMCAzNS4yMjZjLjIuNTM3LS4yIDEuMTc3LS44OTMgMS40MzVzLTEuNDE1LjAzNS0xLjYxNC0uNTAyLjItMS4xNzcuODkzLTEuNDM1UzkuOCAzNC42OSAxMCAzNS4yMjZ6IiBmaWxsPSIjZjZkMmEyIi8+PHBhdGggZD0iTTExLjMxNiAxOS4xMjZjLS4yNjQuNDgtLjg4OC42NDQtMS4zOTMuMzY3bC0uNTgtLjMyYy0uNTA1LS4yNzctLjctLjg5LS40MzYtMS4zN0wxNC45NSA2LjgyNWMuMjY0LS40OC44ODgtLjY0NCAxLjM5My0uMzY3bC41OC4zMmMuNTA1LjI3Ny42MzUuNzk2LjQzNiAxLjM3LTIuMTE4IDYuMS02LjA0NSAxMC45NzgtNi4wNDUgMTAuOTc4eiIgZmlsbD0iIzk2MDAwMCIvPjxwYXRoIGQ9Ik0xMi45MTUgMTIuODU2YzEuODM4LTMuMzM4IDMuMDQ0LTYuMiAyLjc1OC02LjUzNWwuMDA2LS4wMTItLjAyMi0uMDEtLjAwMy0uMDAyQzEyLjgyOCA0Ljc2NyA5LjAyNyA2LjI4IDcuMTUgOS42OXMtMS4xMjIgNy40MjYgMS42ODQgOC45OWgtLjAwMWMuMDEyLjAwNC4wMTguMDEuMDI2LjAxNGwuMDA3LS4wMTJjLjQzLjA2OCAyLjItMi40ODggNC4wNDgtNS44MjZ6IiBmaWxsPSIjNTk1OTU5Ii8+PHBhdGggZD0iTTQzLjIwNyAxOS4xNWMuMjUuNDg3Ljg3LjY3IDEuMzgyLjQwN2wuNi0uMzA0Yy41MTMtLjI2My43MjYtLjg3LjQ3NS0xLjM1OEwzOS45MyA2Ljc0NmMtLjI1LS40ODctLjg3LS42Ny0xLjM4Mi0uNDA3bC0uNi4zMDRjLS41MTMuMjYzLS42NTguNzc4LS40NzUgMS4zNTggMS45NCA2LjE2IDUuNzI1IDExLjE0OCA1LjcyNSAxMS4xNDh6IiBmaWxsPSIjOTYwMDAwIi8+PHBhdGggZD0iTTQxLjc5IDEyLjgzOGMtMS43NC0zLjQtMi44NjUtNi4yOTUtMi41NjgtNi42MTJsLS4wMDctLjAxMmMuMDA4LS4wMDQuMDE3LS4wMDYuMDI0LS4wMWwuMDAzLS4wMDFjMi44Ny0xLjQ0NiA2LjYyMy4xNzQgOC40IDMuNjRzLjkwNyA3LjQ1NC0xLjk0MyA4LjkzNnYuMDAyYy0uMDEyLjAwNC0uMDIuMDEtLjAyNy4wMTRsLS4wMDctLjAxMmMtLjQzLjA1Ni0yLjEzOC0yLjU1LTMuODgtNS45NHoiIGZpbGw9IiM1OTU5NTkiLz48cGF0aCBkPSJNNDcuNDU3IDExLjQwNnMtMi4xMTUtNS4zLTQuNTY4LTguMDg3LTI2LjQ1My0zLjc1LTMwLjM5NCAwLTUuNDI3IDguMDg4LTUuNDI3IDguMDg4di0xLjE3NFM4Ljg5IDUuMDggMTIuNDk1IDIuMTQ1czI3LjI4OC0yLjc4MyAzMC4zNDQgMCA0LjYxOCA4LjA4NyA0LjYxOCA4LjA4N3oiIGZpbGw9IiMzNTM1MzUiLz48cGF0aCBkPSJNNDguMTY1IDkuNjM4Yy41Ljk5Ni41OTMgMS45NjcuMTg1IDIuMTc2cy0xLjE0OC0uNDI0LTEuNjYtMS40Mi0uNTkzLTEuOTY2LS4xODUtMi4xNzYgMS4xNDguNDI0IDEuNjYgMS40MnpNNi42MzggOS40OGMuNTQtLjk4IDEuMjk3LTEuNTkzIDEuNy0xLjM3MnMuMjkyIDEuMi0uMjQ4IDIuMTctMS4yOTcgMS41OTMtMS43IDEuMzctLjI5Mi0xLjIuMjQ4LTIuMTd6IiBmaWxsPSIjOTYwMDAwIi8+PHBhdGggZD0iTTM4LjQxNCAxMC4yOUgxNi4wM2MtNC4wMiAwLTQuMDA1IDEwLjY2Ni0uMjMyIDExLjI4bDcuODA1LS41Yy45NDQgMCAyLjgyNy0zLjY1IDMuMTgtMy45MzZzMS41MTgtLjMyMiAxLjk3NiAwIDEuNSAzLjU2OCAyLjQ0NCAzLjU2OGw3LjgwNS44N2MzLjY0NS0xLjY3NSAyLjcyNi0xMS4yOC0uNTg3LTExLjI4eiIgb3BhY2l0eT0iLjYiLz48cGF0aCBkPSJNMjEuOTcyIDEyLjQ5NWwtOC40My0uMDE1Yy0uMzUzIDEuMTU3LS43NDcgMi42Mi0uNTUyIDQuMDQ0bDkuMDMzLjAxYzEuNzggMCAzLjI4LjMzNiA0LjY3NC43YS43OS43OSAwIDAgMSAuMDg2LS4wOTRjLjM1My0uMjg3IDEuNTE3LS4zMjIgMS45NzYgMCAuMTE4LjA4My4yNzcuMzY0LjQ2Mi43MzJhMTAuOTIgMTAuOTIgMCAwIDAgMi4xNjQuMjYybDkuNzgyLjAxYy4zODctMS4yOTIuMTAyLTIuNjc4LjAxNS0zLjk4LTIuOTY4IDAtNy42ODYtLjA2Ny05Ljk0OC0uMDY3LTMuMTg3IDAtNS45Ny0xLjUyNi05LjI1OC0xLjZ6IiBvcGFjaXR5PSIuNSIvPjxwYXRoIGQ9Ik0yNS4zMzggMTkuMjk3Yy0uMDk4LTIuMyA0LjI5NC0yLjU4OCA0LjgxMy0uNjYycy00LjU5NiAyLjM3LTQuODEyLjY2MmMtLjE3My0xLjM2IDAgMCAwIDB6IiBmaWxsPSIjMDAwIi8+PC9nPjwvc3ltYm9sPjwvc3ZnPg==;rounded=0;" parent="1" vertex="1">
                    <mxGeometry x="-801.78" y="145.48" width="45.56" height="53.72" as="geometry"/>
                </mxCell>
                <mxCell id="101" value="" style="endArrow=classic;html=1;rounded=0;" parent="1" edge="1">
                    <mxGeometry x="-0.1255" y="-3" width="50" height="50" relative="1" as="geometry">
                        <mxPoint x="-750" y="180" as="sourcePoint"/>
                        <mxPoint x="-630" y="30" as="targetPoint"/>
                        <mxPoint as="offset"/>
                    </mxGeometry>
                </mxCell>
                <mxCell id="102" value="" style="endArrow=classic;html=1;rounded=0;" parent="1" edge="1">
                    <mxGeometry width="50" height="50" relative="1" as="geometry">
                        <mxPoint x="-750" y="180" as="sourcePoint"/>
                        <mxPoint x="-600" y="355" as="targetPoint"/>
                    </mxGeometry>
                </mxCell>
                <mxCell id="103" value="domain" style="endArrow=classic;html=1;exitX=1;exitY=0.5;exitDx=0;exitDy=0;rounded=0;" parent="1" source="89" edge="1">
                    <mxGeometry width="50" height="50" relative="1" as="geometry">
                        <mxPoint x="-892.78" y="279.2" as="sourcePoint"/>
                        <mxPoint x="-810.0000000000002" y="176" as="targetPoint"/>
                    </mxGeometry>
                </mxCell>
                <mxCell id="104" value="" style="endArrow=classic;html=1;rounded=0;" parent="1" edge="1">
                    <mxGeometry width="50" height="50" relative="1" as="geometry">
                        <mxPoint x="-540" y="10" as="sourcePoint"/>
                        <mxPoint x="-400" y="130" as="targetPoint"/>
                    </mxGeometry>
                </mxCell>
                <mxCell id="105" value="" style="endArrow=classic;html=1;rounded=0;" parent="1" edge="1">
                    <mxGeometry width="50" height="50" relative="1" as="geometry">
                        <mxPoint x="-540" y="10" as="sourcePoint"/>
                        <mxPoint x="-400" y="10" as="targetPoint"/>
                    </mxGeometry>
                </mxCell>
                <mxCell id="106" value="" style="shape=image;verticalLabelPosition=bottom;labelBackgroundColor=#ffffff;verticalAlign=top;aspect=fixed;imageAspect=0;image=data:image/svg+xml,PHN2ZyB4bWxucz0iaHR0cDovL3d3dy53My5vcmcvMjAwMC9zdmciIHZpZXdCb3g9Ii0xMS41IC0xMC4yMzE3NCAyMyAyMC40NjM0OCI+CiAgPHRpdGxlPlJlYWN0IExvZ288L3RpdGxlPgogIDxjaXJjbGUgY3g9IjAiIGN5PSIwIiByPSIyLjA1IiBmaWxsPSIjNjFkYWZiIi8+CiAgPGcgc3Ryb2tlPSIjNjFkYWZiIiBzdHJva2Utd2lkdGg9IjEiIGZpbGw9Im5vbmUiPgogICAgPGVsbGlwc2Ugcng9IjExIiByeT0iNC4yIi8+CiAgICA8ZWxsaXBzZSByeD0iMTEiIHJ5PSI0LjIiIHRyYW5zZm9ybT0icm90YXRlKDYwKSIvPgogICAgPGVsbGlwc2Ugcng9IjExIiByeT0iNC4yIiB0cmFuc2Zvcm09InJvdGF0ZSgxMjApIi8+CiAgPC9nPgo8L3N2Zz4=;rounded=0;" parent="1" vertex="1">
                    <mxGeometry x="-608.8" y="159.2" width="46" height="40" as="geometry"/>
                </mxCell>
                <mxCell id="109" value="Frontend" style="text;html=1;strokeColor=none;fillColor=none;align=center;verticalAlign=middle;whiteSpace=wrap;rounded=0;fontFamily=Helvetica;fontSize=12;" parent="1" vertex="1">
                    <mxGeometry x="-615.8" y="203.59999999999997" width="60" height="30" as="geometry"/>
                </mxCell>
                <mxCell id="114" value="" style="shape=image;verticalLabelPosition=bottom;verticalAlign=top;imageAspect=0;aspect=fixed;image=data:image/svg+xml,PHN2ZyB4bWxucz0iaHR0cDovL3d3dy53My5vcmcvMjAwMC9zdmciIHZpZXdCb3g9IjAgMCAxOCAxOCI+PHBhdGggZD0iTS41IDE1LjA4YS4xNi4xNiAwIDAwLjA4LjE0bDEuMTYuNjVMMy43IDE3YS4xNy4xNyAwIDAwLjIzLS4wNmwuNjYtMS4xMmEuMTYuMTYgMCAwMC0uMDYtLjIxbC0yLjMtMS4zYS4xNy4xNyAwIDAxLS4wOC0uMTRWMy44NWEuMTYuMTYgMCAwMS4wOC0uMTRsMi4zLTEuM2EuMTYuMTYgMCAwMC4wNi0uMjFsLS42Ni0xLjEyQS4xNy4xNyAwIDAwMy43IDFMMS43OCAyLjExbC0xLjIuNjdhLjE2LjE2IDAgMDAtLjA4LjE0djEyLjE2eiIgZmlsbD0iIzk0OTQ5NCIvPjxwYXRoIGQ9Ik0yLjE0IDMuNzdsLjA2LS4wNiAyLjMtMS4zYS4xNC4xNCAwIDAwLjA2LS4yMUwzLjkgMS4wOEEuMTUuMTUgMCAwMDMuNjggMUwxLjc1IDIuMTFsLTEuMTkuNjdzLS4wNSAwLS4wNi4wNmwuOS41MXpNNC41IDE1LjU5bC0yLjMtMS4zYS4yMi4yMiAwIDAxLS4wNy0uMDlsLTEuNjIgMWguMDVsMS4xNS42NSAyIDEuMTFhLjE1LjE1IDAgMDAuMjItLjA2bC42Ni0xLjEyYS4xNC4xNCAwIDAwLS4wOS0uMTl6IiBmaWxsPSIjYTNhM2EzIi8+PHBhdGggZD0iTTE3LjUgMTUuMDhhLjE2LjE2IDAgMDEtLjA4LjE0bC0xLjE2LjY1TDE0LjMgMTdhLjE3LjE3IDAgMDEtLjIzLS4wNmwtLjY2LTEuMTJhLjE2LjE2IDAgMDEuMDYtLjIxbDIuMy0xLjNhLjE3LjE3IDAgMDAuMDgtLjE0VjMuODVhLjE2LjE2IDAgMDAtLjA4LS4xNGwtMi4zLTEuM2EuMTYuMTYgMCAwMS0uMDYtLjIxbC42Ni0xLjEyQS4xNy4xNyAwIDAxMTQuMyAxbDEuOTIgMS4wOSAxLjIuNjdhLjE2LjE2IDAgMDEuMDguMTR2MTIuMTh6IiBmaWxsPSIjOTQ5NDk0Ii8+PHBhdGggZD0iTTE1Ljg2IDMuNzdsLS4wNi0uMDYtMi4zLTEuM2EuMTQuMTQgMCAwMS0uMDYtLjIxbC42Ni0xLjEyYS4xNS4xNSAwIDAxLjIyLS4wOGwxLjkzIDEuMDkgMS4xOS42Ny4wNi4wNi0uOS41MXpNMTMuNSAxNS41OWwyLjMtMS4zYS4yMi4yMiAwIDAwLjA3LS4wOWwxLjYyIDEtMS4xNS42NS0yIDEuMTFhLjE1LjE1IDAgMDEtLjIyLS4wNmwtLjY2LTEuMTJhLjE0LjE0IDAgMDEuMDQtLjE5eiIgZmlsbD0iI2EzYTNhMyIvPjxwYXRoIGZpbGw9IiMzMmJlZGQiIGQ9Ik0xNC4zMSA1LjkzdjYuMTRsLTUuMzIgMy4wOVY5LjAxbDUuMzItMy4wOHoiLz48cGF0aCBmaWxsPSIjOWNlYmZmIiBkPSJNMTQuMzEgNS45M0w5IDkuMDIgMy42OCA1LjkzIDkgMi44NGw1LjMxIDMuMDl6Ii8+PHBhdGggZmlsbD0iIzUwZTZmZiIgZD0iTTguOTkgOS4wMnY2LjE0bC01LjMxLTMuMDlWNS45M2w1LjMxIDMuMDl6Ii8+PHBhdGggZmlsbD0iIzljZWJmZiIgZD0iTTMuNjggMTIuMDdsNS4zMS0zLjA2djYuMTVsLTUuMzEtMy4wOXoiLz48cGF0aCBmaWxsPSIjNTBlNmZmIiBkPSJNMTQuMzEgMTIuMDdMOC45OSA5LjAxdjYuMTVsNS4zMi0zLjA5eiIvPjwvc3ZnPg==;rounded=0;" parent="1" vertex="1">
                    <mxGeometry x="-910" y="-220" width="30" height="30" as="geometry"/>
                </mxCell>
                <mxCell id="115" value="Resource Group" style="text;html=1;strokeColor=none;fillColor=none;align=center;verticalAlign=middle;whiteSpace=wrap;rounded=0;fontFamily=Helvetica;fontSize=12;" parent="1" vertex="1">
                    <mxGeometry x="-870" y="-220" width="110" height="30" as="geometry"/>
                </mxCell>
                <mxCell id="116" value="" style="shape=image;verticalLabelPosition=bottom;verticalAlign=top;imageAspect=0;aspect=fixed;image=data:image/svg+xml,PHN2ZyB4bWxucz0iaHR0cDovL3d3dy53My5vcmcvMjAwMC9zdmciIHZpZXdCb3g9IjAgMCAxOCAxOCI+PGRlZnM+PGxpbmVhckdyYWRpZW50IGlkPSJhIiB4MT0iOS44OCIgeTE9IjguNTkiIHgyPSIxMS41MiIgeTI9IjEwLjIzIiBncmFkaWVudFRyYW5zZm9ybT0icm90YXRlKC0uMDggLTI4NS40NjQgLTE0NTQuMDgpIiBncmFkaWVudFVuaXRzPSJ1c2VyU3BhY2VPblVzZSI+PHN0b3Agb2Zmc2V0PSIwIiBzdG9wLWNvbG9yPSIjODZkNjMzIi8+PHN0b3Agb2Zmc2V0PSIxIiBzdG9wLWNvbG9yPSIjNWU5NjI0Ii8+PC9saW5lYXJHcmFkaWVudD48bGluZWFyR3JhZGllbnQgaWQ9ImIiIHgxPSI2LjE4IiB5MT0iOC41OSIgeDI9IjcuODEiIHkyPSIxMC4yMyIgZ3JhZGllbnRVbml0cz0idXNlclNwYWNlT25Vc2UiPjxzdG9wIG9mZnNldD0iMCIgc3RvcC1jb2xvcj0iIzg2ZDYzMyIvPjxzdG9wIG9mZnNldD0iMSIgc3RvcC1jb2xvcj0iIzVlOTYyNCIvPjwvbGluZWFyR3JhZGllbnQ+PGxpbmVhckdyYWRpZW50IGlkPSJjIiB4MT0iMi40OCIgeTE9IjguNTkiIHgyPSI0LjExIiB5Mj0iMTAuMjMiIGdyYWRpZW50VW5pdHM9InVzZXJTcGFjZU9uVXNlIj48c3RvcCBvZmZzZXQ9IjAiIHN0b3AtY29sb3I9IiM4NmQ2MzMiLz48c3RvcCBvZmZzZXQ9IjEiIHN0b3AtY29sb3I9IiM1ZTk2MjQiLz48L2xpbmVhckdyYWRpZW50PjwvZGVmcz48Y2lyY2xlIGN4PSIxMi43NCIgY3k9IjguOTkiIHI9IjEuMTYiIGZpbGw9InVybCgjYSkiLz48Y2lyY2xlIGN4PSI5LjA0IiBjeT0iOSIgcj0iMS4xNiIgZmlsbD0idXJsKCNiKSIvPjxjaXJjbGUgY3g9IjUuMzQiIGN5PSI5IiByPSIxLjE2IiBmaWxsPSJ1cmwoI2MpIi8+PHBhdGggZD0iTTYuMTgyIDEzLjYzOGwtLjY2NC42NjVhLjMuMyAwIDAxLS40MjQgMEwuMTggOS40MDRhLjYuNiAwIDAxLS4wMDEtLjg0OGwuNjYzLS42NjYgNS4zNCA1LjMyNGEuMy4zIDAgMDEwIC40MjV6IiBmaWxsPSIjNTBlNmZmIi8+PHBhdGggZD0iTTUuNDE4IDMuNzA4bC42NjYuNjY0YS4zLjMgMCAwMTAgLjQyNEwuODM4IDEwLjA1N2wtLjY2Ni0uNjYzYS42LjYgMCAwMS0uMDAxLS44NDlMNC45OTQgMy43MWEuMy4zIDAgMDEuNDI0IDB6IiBmaWxsPSIjMTQ5MGRmIi8+PHBhdGggZD0iTTE3LjE1NyA3Ljg4bC42NjMuNjY2YS42LjYgMCAwMTAgLjg0OGwtNC45MTUgNC45YS4zLjMgMCAwMS0uNDI0IDBsLS42NjQtLjY2NmEuMy4zIDAgMDEwLS40MjRsNS4zNC01LjMyNHoiIGZpbGw9IiM1MGU2ZmYiLz48cGF0aCBkPSJNMTcuODE4IDkuMzg3bC0uNjY1LjY2NC01LjI0Ny01LjI2MWEuMy4zIDAgMDEwLS40MjVsLjY3NC0uNjdhLjMuMyAwIDAxLjQyNCAwbDQuODIzIDQuODM2YS42LjYgMCAwMS0uMDAyLjg0OXoiIGZpbGw9IiMxNDkwZGYiLz48L3N2Zz4=;rounded=0;" parent="1" vertex="1">
                    <mxGeometry x="-890" y="-165" width="40" height="40" as="geometry"/>
                </mxCell>
                <mxCell id="117" value="Virtual Network" style="text;html=1;strokeColor=none;fillColor=none;align=center;verticalAlign=middle;whiteSpace=wrap;rounded=0;fontFamily=Helvetica;fontSize=12;" parent="1" vertex="1">
                    <mxGeometry x="-842" y="-160" width="110" height="30" as="geometry"/>
                </mxCell>
                <mxCell id="118" value="" style="shape=image;verticalLabelPosition=bottom;verticalAlign=top;imageAspect=0;aspect=fixed;image=data:image/svg+xml,PHN2ZyB4bWxucz0iaHR0cDovL3d3dy53My5vcmcvMjAwMC9zdmciIGRhdGEtbmFtZT0iZmx1ZW50X2ljb25zIiB2aWV3Qm94PSIwIDAgMTggMTgiPjxkZWZzPjxsaW5lYXJHcmFkaWVudCBpZD0iYSIgeDE9IjguNjciIHkxPSIxNy41NCIgeDI9IjguNjciIHkyPSItMS4xOSIgZ3JhZGllbnRVbml0cz0idXNlclNwYWNlT25Vc2UiPjxzdG9wIG9mZnNldD0iMCIgc3RvcC1jb2xvcj0iIzAwNzhkNCIvPjxzdG9wIG9mZnNldD0iLjE2IiBzdG9wLWNvbG9yPSIjMTM4MGRhIi8+PHN0b3Agb2Zmc2V0PSIuNTMiIHN0b3AtY29sb3I9IiMzYzkxZTUiLz48c3RvcCBvZmZzZXQ9Ii44MiIgc3RvcC1jb2xvcj0iIzU1OWNlYyIvPjxzdG9wIG9mZnNldD0iMSIgc3RvcC1jb2xvcj0iIzVlYTBlZiIvPjwvbGluZWFyR3JhZGllbnQ+PGxpbmVhckdyYWRpZW50IGlkPSJiIiB4MT0iMTIuOTYiIHkxPSIxMC41IiB4Mj0iMTIuOTYiIHkyPSIxMi45MiIgZ3JhZGllbnRVbml0cz0idXNlclNwYWNlT25Vc2UiPjxzdG9wIG9mZnNldD0iMCIgc3RvcC1jb2xvcj0iIzMzMzEzMiIvPjxzdG9wIG9mZnNldD0iMSIgc3RvcC1jb2xvcj0iIzViNWE1YyIvPjwvbGluZWFyR3JhZGllbnQ+PC9kZWZzPjxwYXRoIGQ9Ik0xNi4yMiA3LjQ0QTQuMTkgNC4xOSAwIDAwMTQgNi4zMmE0LjkxIDQuOTEgMCAwMC01LjEtNC43IDUuMDcgNS4wNyAwIDAwLTQuODQgMy4yOUE0LjYyIDQuNjIgMCAwMDAgOS4zOWE0LjczIDQuNzMgMCAwMDQuODkgNC41NGg4LjU2YTQgNCAwIDAwMy45Mi0zLjgxIDMuNjcgMy42NyAwIDAwLTEuMTQtMi42MyIgZmlsbD0idXJsKCNhKSIvPjxwYXRoIGZpbGw9IiM3Njc2NzYiIGQ9Ik0xMC4wNyA2LjIybC4wMSA0LjI4IDcuOTEgMS42OFY5LjJsLTcuOTItMi45OHoiLz48cGF0aCBmaWxsPSIjOTk5IiBkPSJNMTAuMDcgNi4yMmwtMi4xNCAxLjN2My45OGwyLjE1LTEiLz48cGF0aCBmaWxsPSIjYTNhM2EzIiBkPSJNMTMuNjggMTAuNTZsLjcyLjJWOC40M2wtLjcyLS4yNXYyLjM4em0tLjcyLTIuNjFsLS43Mi0uMjZ2Mi40OWwuNzIuMlY3Ljk1em0yLjE2IDNsLjcuMTkuMDItMi4yMi0uNzItLjI0djIuMjd6bS00LjMxLTEuMTRsLjcyLjE4VjcuNDZsLS43Mi0uMjR2Mi41OXptNi40Ni0uNGwtLjcyLS4yNXYyLjE3bC43Mi4yVjkuNDF6Ii8+PHBhdGggZGF0YS1uYW1lPSJQYXRoIDE1ODgiIGQ9Ik04LjY2IDEwLjQzbC0uMzYuMjFWNy44MWwuMzYtLjE5em0uNzEtMy4yMkw5IDcuNDV2Mi43NWwuMzctLjJ6IiBmaWxsPSIjYjNiM2IzIi8+PHBhdGggZmlsbD0idXJsKCNiKSIgZD0iTTE3Ljk5IDEyLjE4bC0yLjE2Ljc0LTcuOS0xLjQyIDIuMTUtMSA3LjkxIDEuNjh6Ii8+PHBhdGggZmlsbD0iIzc2NzY3NiIgZD0iTTE3Ljk5IDE1LjIzbC03Ljk1IDEuNTEuMDQtNS41OSA3LjkxIDEuNDd2Mi42MXoiLz48cGF0aCBmaWxsPSIjYTNhM2EzIiBkPSJNMTAuODEgMTUuODJ2LTMuNTVsLjcyLjA5djMuMzRsLS43Mi4xMnptMi4xNS0uMzZsLS43Mi4xM3YtMy4xNGwuNzIuMTF2Mi45em0uNzItLjExdi0yLjcybC43Mi4wOXYyLjVsLS43Mi4xM3ptMi4xNS0uMzhsLS43MS4xM3YtMi4yOWwuNzEuMTF2Mi4wNXptMS40Ni0uMjNsLS43NC4xM3YtMS44OGwuNjkuMDkuMDUgMS42NnoiLz48cGF0aCBkYXRhLW5hbWU9IlBhdGggMTU4OSIgZD0iTTcuOTMgMTUuNDZWMTIuMmwyLjE2LTF2NS42eiIgZmlsbD0iIzk5OSIvPjxwYXRoIGRhdGEtbmFtZT0iUGF0aCAxNTkwIiBkPSJNOC42MSAxNS40NWwtLjMyLS4xNnYtMi43NmwuMzItLjE1ek05LjM4IDEybC0uMzguMTl2My40OGwuMzcuMTlWMTJ6IiBmaWxsPSIjYjNiM2IzIi8+PC9zdmc+;rounded=0;" parent="1" vertex="1">
                    <mxGeometry x="-490" y="-120" width="55" height="55" as="geometry"/>
                </mxCell>
                <mxCell id="119" value="Container Registry" style="text;html=1;strokeColor=none;fillColor=none;align=center;verticalAlign=middle;whiteSpace=wrap;rounded=0;fontFamily=Helvetica;fontSize=12;" parent="1" vertex="1">
                    <mxGeometry x="-423.5" y="-107.5" width="110" height="30" as="geometry"/>
                </mxCell>
                <mxCell id="120" value="" style="shape=image;verticalLabelPosition=bottom;verticalAlign=top;imageAspect=0;aspect=fixed;image=data:image/svg+xml,PHN2ZyB4bWxucz0iaHR0cDovL3d3dy53My5vcmcvMjAwMC9zdmciIHZpZXdCb3g9IjAgMCA1MCA1MCI+PHBhdGggZmlsbD0iI0EwQTFBMiIgZD0iTTAgNDQuOGMwIDEgLjggMS45IDEuOCAxLjloNDYuM2MxIDAgMS45LS44IDEuOS0xLjlWMTEuN0gwdjMzLjF6Ii8+PHBhdGggZmlsbD0iIzdBN0E3QSIgZD0iTTQ4LjEgNEgxLjhDLjggNCAwIDQuOSAwIDUuOXY1LjdoNTBWNS45YzAtMS0uOC0xLjktMS45LTEuOSIvPjxwYXRoIGZpbGw9IiMwMDcyQzYiIGQ9Ik0zLjcgMTUuMWgyMC40djEzSDMuN3ptMCAxNC44aDIwLjR2MTNIMy43eiIvPjxwYXRoIGZpbGw9IiNGRkYiIGQ9Ik0yNS45IDE1LjFoMjAuM3YxM0gyNS45eiIvPjxwYXRoIGZpbGw9IiMwMDcyQzYiIGQ9Ik0yNS45IDI5LjloMjAuM3YxM0gyNS45eiIvPjxwYXRoIG9wYWNpdHk9Ii4yIiBmaWxsPSIjRkZGIiBkPSJNMiA0Qy45IDQgMCA0LjkgMCA2djM4LjZjMCAxLjEuOSAyIDIgMmgyLjJMNDMuNiA0SDJ6Ii8+PC9zdmc+;rounded=0;" parent="1" vertex="1">
                    <mxGeometry x="-600.8" y="340" width="30" height="30" as="geometry"/>
                </mxCell>
                <mxCell id="121" value="Blob Storage" style="text;html=1;strokeColor=none;fillColor=none;align=center;verticalAlign=middle;whiteSpace=wrap;rounded=0;fontFamily=Helvetica;fontSize=12;" parent="1" vertex="1">
                    <mxGeometry x="-606" y="370" width="80" height="30" as="geometry"/>
                </mxCell>
                <mxCell id="122" value="" style="endArrow=classic;html=1;rounded=0;" parent="1" edge="1">
                    <mxGeometry x="-0.1255" y="-3" width="50" height="50" relative="1" as="geometry">
                        <mxPoint x="-750" y="180" as="sourcePoint"/>
                        <mxPoint x="-630" y="180" as="targetPoint"/>
                        <mxPoint as="offset"/>
                    </mxGeometry>
                </mxCell>
                <mxCell id="123" value="Backend" style="text;html=1;strokeColor=none;fillColor=none;align=center;verticalAlign=middle;whiteSpace=wrap;rounded=0;fontFamily=Helvetica;fontSize=12;" parent="1" vertex="1">
                    <mxGeometry x="-615.8" y="39.99999999999997" width="60" height="30" as="geometry"/>
                </mxCell>
                <mxCell id="127" value="" style="shape=image;verticalLabelPosition=bottom;verticalAlign=top;imageAspect=0;aspect=fixed;image=data:image/svg+xml,PHN2ZyB4bWxucz0iaHR0cDovL3d3dy53My5vcmcvMjAwMC9zdmciIHZpZXdCb3g9IjAgMCA1MCA1MCIgY2xhc3M9ImZ4cy1wb3J0YWwtc3ZnIj4KICAgIDxwYXRoIGQ9Ik00MiAxMS4zMThDNDEuNjQgNC43NCAzNi4wMTUtLjMwMSAyOS40MzcuMDU5QTExLjkyNiAxMS45MjYgMCAwMDIwLjQgNS4wMTFhOS40NDQgOS40NDQgMCAwMC0xNC45MzIgOS44QTguOTcgOC45NyAwIDAwOS4xNjQgMzEuOTVoMzAuMzc4YzUuNzc5LS4wMDMgMTAuNDYxLTQuNjg5IDEwLjQ1OC0xMC40NjhhMTAuNDYzIDEwLjQ2MyAwIDAwLTgtMTAuMTY0eiIgY2xhc3M9Im1zcG9ydGFsZngtc3ZnLWMxNSIgZmlsbD0iIzU5YjRkOSIvPgogICAgPHBhdGggZD0iTTEzLjEgMjEuOTVhMSAxIDAgMDAtMSAxdjI2YTEgMSAwIDAwMSAxaDI0YTEgMSAwIDAwMS0xdi0yNmExIDEgMCAwMC0xLTFoLTI0eiIgY2xhc3M9Im1zcG9ydGFsZngtc3ZnLWMxNyIgZmlsbD0iIzgwNDk5OCIvPgogICAgPHBhdGggZD0iTTIzLjEgMjEuOTV2LTdoLTNsNS03IDUgN2gtM3Y3em0xMCAzaC0xOHYyMmgyMHYtMjJoLTJ6IiBjbGFzcz0ibXNwb3J0YWxmeC1zdmctYzAxIiBmaWxsPSIjZmZmIi8+CiAgICA8cGF0aCBkPSJNMTcuMDY3IDI2Ljk1aDR2MThoLTR6bTYgMGg0djE4aC00em02IDBoNHYxOGgtNHoiIGNsYXNzPSJtc3BvcnRhbGZ4LXN2Zy1jMTciIGZpbGw9IiM4MDQ5OTgiLz4KPC9zdmc+;rounded=0;" parent="1" vertex="1">
                    <mxGeometry x="-575" y="139" width="29.2" height="29.2" as="geometry"/>
                </mxCell>
                <mxCell id="128" value="" style="shape=image;verticalLabelPosition=bottom;verticalAlign=top;imageAspect=0;aspect=fixed;image=data:image/svg+xml,PHN2ZyB4bWxucz0iaHR0cDovL3d3dy53My5vcmcvMjAwMC9zdmciIHZpZXdCb3g9IjAgMCA1MCA1MCIgY2xhc3M9ImZ4cy1wb3J0YWwtc3ZnIj4KICAgIDxwYXRoIGQ9Ik00MiAxMS4zMThDNDEuNjQgNC43NCAzNi4wMTUtLjMwMSAyOS40MzcuMDU5QTExLjkyNiAxMS45MjYgMCAwMDIwLjQgNS4wMTFhOS40NDQgOS40NDQgMCAwMC0xNC45MzIgOS44QTguOTcgOC45NyAwIDAwOS4xNjQgMzEuOTVoMzAuMzc4YzUuNzc5LS4wMDMgMTAuNDYxLTQuNjg5IDEwLjQ1OC0xMC40NjhhMTAuNDYzIDEwLjQ2MyAwIDAwLTgtMTAuMTY0eiIgY2xhc3M9Im1zcG9ydGFsZngtc3ZnLWMxNSIgZmlsbD0iIzU5YjRkOSIvPgogICAgPHBhdGggZD0iTTEzLjEgMjEuOTVhMSAxIDAgMDAtMSAxdjI2YTEgMSAwIDAwMSAxaDI0YTEgMSAwIDAwMS0xdi0yNmExIDEgMCAwMC0xLTFoLTI0eiIgY2xhc3M9Im1zcG9ydGFsZngtc3ZnLWMxNyIgZmlsbD0iIzgwNDk5OCIvPgogICAgPHBhdGggZD0iTTIzLjEgMjEuOTV2LTdoLTNsNS03IDUgN2gtM3Y3em0xMCAzaC0xOHYyMmgyMHYtMjJoLTJ6IiBjbGFzcz0ibXNwb3J0YWxmeC1zdmctYzAxIiBmaWxsPSIjZmZmIi8+CiAgICA8cGF0aCBkPSJNMTcuMDY3IDI2Ljk1aDR2MThoLTR6bTYgMGg0djE4aC00em02IDBoNHYxOGgtNHoiIGNsYXNzPSJtc3BvcnRhbGZ4LXN2Zy1jMTciIGZpbGw9IiM4MDQ5OTgiLz4KPC9zdmc+;rounded=0;" parent="1" vertex="1">
                    <mxGeometry x="-575" y="-40" width="29.2" height="29.2" as="geometry"/>
                </mxCell>
                <mxCell id="129" value="" style="endArrow=none;dashed=1;html=1;dashPattern=1 3;strokeWidth=2;rounded=0;" parent="1" edge="1">
                    <mxGeometry width="50" height="50" relative="1" as="geometry">
                        <mxPoint x="-545.8" y="-40" as="sourcePoint"/>
                        <mxPoint x="-496" y="-80" as="targetPoint"/>
                    </mxGeometry>
                </mxCell>
                <mxCell id="130" value="" style="endArrow=none;dashed=1;html=1;dashPattern=1 3;strokeWidth=2;entryX=0.25;entryY=1;entryDx=0;entryDy=0;rounded=0;" parent="1" target="118" edge="1">
                    <mxGeometry width="50" height="50" relative="1" as="geometry">
                        <mxPoint x="-550" y="130" as="sourcePoint"/>
                        <mxPoint x="-486" y="-70.00000000000023" as="targetPoint"/>
                    </mxGeometry>
                </mxCell>
                <mxCell id="133" value="" style="shape=image;verticalLabelPosition=bottom;verticalAlign=top;imageAspect=0;aspect=fixed;image=data:image/svg+xml,PHN2ZyB4bWxucz0iaHR0cDovL3d3dy53My5vcmcvMjAwMC9zdmciIGRhdGEtbmFtZT0iZmx1ZW50X2ljb25zIiB2aWV3Qm94PSIwIDAgMTggMTgiPjxkZWZzPjxsaW5lYXJHcmFkaWVudCBpZD0iYSIgeDE9IjkiIHkxPSIxNS44MyIgeDI9IjkiIHkyPSI1Ljc5IiBncmFkaWVudFVuaXRzPSJ1c2VyU3BhY2VPblVzZSI+PHN0b3Agb2Zmc2V0PSIwIiBzdG9wLWNvbG9yPSIjY2NjIi8+PHN0b3Agb2Zmc2V0PSIuNDYiIHN0b3AtY29sb3I9IiNkZWRlZGUiLz48c3RvcCBvZmZzZXQ9Ii44MyIgc3RvcC1jb2xvcj0iI2U2ZTZlNiIvPjwvbGluZWFyR3JhZGllbnQ+PC9kZWZzPjxwYXRoIGQ9Ik0uNSA1Ljc5aDE3djkuNDhhLjU3LjU3IDAgMDEtLjU3LjU3SDEuMDdhLjU3LjU3IDAgMDEtLjU3LS41N1Y1Ljc5eiIgZmlsbD0idXJsKCNhKSIvPjxwYXRoIGQ9Ik0xLjA3IDIuMTdoMTUuODZhLjU3LjU3IDAgMDEuNTcuNTd2My4wNUguNVYyLjczYS41Ny41NyAwIDAxLjU3LS41NnoiIGZpbGw9IiMzN2MyYjEiLz48cGF0aCBkPSJNMi44MSA2Ljg5aDEyLjM3YS4yNy4yNyAwIDAxLjI2LjI3djEuNGEuMjcuMjcgMCAwMS0uMjYuMjdIMi44MWEuMjcuMjcgMCAwMS0uMjYtLjI3di0xLjRhLjI3LjI3IDAgMDEuMjYtLjI3eiIgZmlsbD0iIzQyZThjYSIvPjxwYXRoIGQ9Ik0yLjgyIDkuNjhoMTIuMzdhLjI3LjI3IDAgMDEuMjYuMjd2MS40MWEuMjcuMjcgMCAwMS0uMjYuMjdIMi44MmEuMjcuMjcgMCAwMS0uMjYtLjI3VjEwYS4yNy4yNyAwIDAxLjI2LS4zMnoiIGZpbGw9IiMzN2MyYjEiLz48cGF0aCBkPSJNMi44MiAxMi41aDEyLjM3YS4yNy4yNyAwIDAxLjI2LjI3djEuNDFhLjI3LjI3IDAgMDEtLjI2LjI3SDIuODJhLjI3LjI3IDAgMDEtLjI2LS4yN3YtMS40MWEuMjcuMjcgMCAwMS4yNi0uMjd6IiBmaWxsPSIjMjU4Mjc3Ii8+PC9zdmc+" parent="1" vertex="1">
                    <mxGeometry x="-640" y="250" width="30" height="30" as="geometry"/>
                </mxCell>
                <mxCell id="134" value="Storage Account" style="text;html=1;strokeColor=none;fillColor=none;align=center;verticalAlign=middle;whiteSpace=wrap;rounded=0;fontFamily=Helvetica;fontSize=12;" parent="1" vertex="1">
                    <mxGeometry x="-606" y="246.00000000000003" width="110" height="30" as="geometry"/>
                </mxCell>
                <mxCell id="138" value="" style="aspect=fixed;html=1;points=[];align=center;image;fontSize=12;image=img/lib/azure2/general/Storage_Container.svg;" vertex="1" parent="1">
                    <mxGeometry x="-620" y="290" width="32" height="26" as="geometry"/>
                </mxCell>
                <mxCell id="139" value="Storage Container" style="text;html=1;strokeColor=none;fillColor=none;align=center;verticalAlign=middle;whiteSpace=wrap;rounded=0;fontFamily=Helvetica;fontSize=12;" vertex="1" parent="1">
                    <mxGeometry x="-588" y="288" width="110" height="30" as="geometry"/>
                </mxCell>
            </root>
        </mxGraphModel>
    </diagram>
</mxfile>